{"title":"Unfriended.2014.1080p.WEB-DL.DD5.1.H264-RARBG","uid":12170981,"size":3452399569,"categoryP":"video","categoryS":"hd___movies","magnet":"?xt=urn:btih:c57333aa6d448c42a3501aa4de9095c552201638&amp;dn=Unfriended.2014.1080p.WEB-DL.DD5.1.H264-RARBG&amp;tr=udp%3A%2F%2Ftracker.openbittorrent.com%3A80&amp;tr=udp%3A%2F%2Fopen.demonii.com%3A1337&amp;tr=udp%3A%2F%2Ftracker.coppersurfer.tk%3A6969&amp;tr=udp%3A%2F%2Fexodus.desync.com%3A6969","seeders":2,"leechers":0,"uploader":"vickey1992","files":5,"time":1438182229,"description":"Video\nID                                       : 1\nFormat                                   : AVC\nFormat/Info                              : Advanced Video Codec\nFormat profile                           : High@L4\nFormat settings, CABAC                   : Yes\nFormat settings, ReFrames                : 4 frames\nCodec ID                                 : V_MPEG4/ISO/AVC\nDuration                                 : 1h 22mn\nBit rate                                 : 5 079 Kbps\nWidth                                    : 1 916 pixels\nHeight                                   : 1 076 pixels\nDisplay aspect ratio                     : 16:9\nFrame rate mode                          : Constant\nFrame rate                               : 23.976 fps\nColor space                              : YUV\nChroma subsampling                       : 4:2:0\nBit depth                                : 8 bits\nScan type                                : Progressive\nBits/(Pixel*Frame)                       : 0.103\nStream size                              : 2.93 GiB (91%)\nTitle                                    : Unfriended.2014.1080p.WEB-DL.DD5.1.H264-RARBG\nLanguage                                 : English\nDefault                                  : Yes\nForced                                   : No\nColor range                              : Limited\nColor primaries                          : BT.709\nTransfer characteristics                 : BT.709\nMatrix coefficients                      : BT.709\n\nAudio\nID                                       : 2\nFormat                                   : AC-3\nFormat/Info                              : Audio Coding 3\nMode extension                           : CM (complete main)\nFormat settings, Endianness              : Big\nCodec ID                                 : A_AC3\nDuration                                 : 1h 22mn\nBit rate mode                            : Constant\nBit rate                                 : 384 Kbps\nChannel(s)                               : 6 channels\nChannel positions                        : Front: L C R, Side: L R, LFE\nSampling rate                            : 48.0 KHz\nCompression mode                         : Lossy\nStream size                              : 227 MiB (7%)\nTitle                                    : Unfriended.2014.1080p.WEB-DL.DD5.1.H264-RARBG\nLanguage                                 : English\nDefault                                  : Yes\nForced                                   : No\n\nText\nID                                       : 3\nFormat                                   : UTF-8\nCodec ID                                 : S_TEXT/UTF8\nCodec ID/Info                            : UTF-8 Plain Text\nLanguage                                 : English\nDefault                                  : Yes\nForced                                   : No\n\nMenu\n00:00:00.000                             : en:1\n00:02:11.000                             : en:2\n00:06:08.000                             : en:3\n00:09:19.000                             : en:4\n00:12:30.000                             : en:5\n00:19:10.000                             : en:6\n00:23:45.000                             : en:7\n00:28:14.000                             : en:8\n00:33:54.000                             : en:9\n00:37:13.000                             : en:10\n00:41:48.000                             : en:11\n00:44:34.000                             : en:12\n00:47:51.000                             : en:13\n00:52:42.000                             : en:14\n00:57:24.000                             : en:15\n01:01:02.000                             : en:16\n01:04:49.000                             : en:17\n01:08:58.000                             : en:18\n01:13:38.000                             : en:19\n01:16:42.000                             : en:20","torrent":{"xt":"urn:btih:c57333aa6d448c42a3501aa4de9095c552201638","amp;dn":"Unfriended.2014.1080p.WEB-DL.DD5.1.H264-RARBG","amp;tr":["udp%3A%2F%2Ftracker.openbittorrent.com%3A80","udp%3A%2F%2Fopen.demonii.com%3A1337","udp%3A%2F%2Ftracker.coppersurfer.tk%3A6969","udp%3A%2F%2Fexodus.desync.com%3A6969"],"infoHash":"c57333aa6d448c42a3501aa4de9095c552201638","infoHashBuffer":{"type":"Buffer","data":[197,115,51,170,109,68,140,66,163,80,26,164,222,144,149,197,82,32,22,56]},"announce":[],"urlList":[]}}